<!--?xml version="1.0" standalone="no"?-->

<svg version="1.0" xmlns="http://www.w3.org/2000/svg" width="300.000000pt" height="300.000000pt" viewBox="0 0 300.000000 300.000000" preserveAspectRatio="xMidYMid meet">
<g transform="translate(0.000000,300.000000) scale(0.100000,-0.100000)" fill="#2B2B2B" stroke="none">
<path class="node" id="node1" d="M1448 2763 c-9 -32 -23 -78 -33 -103 -20 -53 -13 -105 15 -120 11 -6
20 -19 20 -30 0 -29 11 -50 26 -50 9 0 14 12 14 35 0 20 10 49 25 71 14 20 25
49 25 64 0 41 -20 90 -36 90 -12 0 -14 -11 -9 -57 7 -65 -9 -101 -39 -90 -22
9 -20 42 9 112 27 65 33 135 12 135 -7 0 -20 -26 -29 -57z"></path>
<path class="node" id="node2" d="M2110 2725 c-10 -13 -8 -33 13 -112 19 -70 23 -101 16 -114 -14 -27
-25 -23 -40 12 -9 24 -10 41 -1 73 13 48 1 69 -25 43 -26 -26 -24 -114 5 -154
12 -17 22 -45 22 -63 0 -25 4 -31 18 -28 10 2 18 14 20 32 2 16 12 38 23 49
25 27 24 85 -1 157 -11 30 -19 70 -20 88 0 35 -10 41 -30 17z"></path>
<path class="node" id="node3" d="M784 2578 c-31 -76 -39 -158 -16 -165 7 -3 12 -25 12 -60 0 -46 3
-54 18 -51 12 2 18 15 20 46 2 23 7 42 12 42 5 0 16 7 24 16 21 20 23 146 3
163 -22 17 -27 3 -21 -58 5 -61 -5 -87 -30 -78 -24 9 -20 63 9 125 28 60 32
92 12 92 -8 0 -27 -33 -43 -72z"></path>
<path class="node" id="node4" d="M1760 2587 c0 -8 11 -46 25 -85 14 -39 25 -83 25 -97 0 -28 -35 -68
-53 -62 -16 5 -20 58 -8 104 7 24 7 41 1 47 -19 19 -33 -12 -38 -83 -3 -54 -1
-76 11 -94 9 -13 17 -42 19 -63 5 -58 31 -53 38 8 4 33 13 52 30 66 22 18 25
28 25 84 0 71 -38 188 -61 188 -8 0 -14 -6 -14 -13z"></path>
<path stroke-width="20" class="node" id="node5" d="M1192 2557 c-6 -7 -26 -43 -47 -82 -41 -78 -42 -120 -6 -159 11 -12
21 -39 23 -61 4 -53 33 -57 33 -5 0 27 6 39 28 52 24 16 27 24 27 70 0 29 -7
75 -15 102 -8 28 -13 57 -10 67 7 20 -19 33 -33 16z m23 -204 c-6 -26 -23 -29
-50 -9 -22 16 -17 69 12 112 l18 28 12 -55 c7 -30 11 -64 8 -76z"></path>
<path class="node" id="node6" d="M1404 2447 c-3 -9 -9 -85 -12 -169 l-7 -153 -78 -5 -77 -5 0 47 c0
48 -15 71 -31 47 -5 -8 -8 -90 -6 -184 1 -130 -1 -176 -12 -194 -13 -23 -14
-24 -27 -6 -22 29 -27 101 -20 260 3 84 3 155 -1 158 -17 18 -33 -19 -33 -79
0 -58 -2 -64 -22 -69 -70 -15 -213 -45 -220 -45 -4 0 -8 53 -8 118 0 65 -3
121 -6 125 -3 3 -12 3 -20 0 -11 -4 -14 -43 -14 -203 0 -204 -6 -235 -38 -194
-11 16 -13 53 -9 207 4 148 2 187 -8 187 -20 0 -23 -17 -31 -159 -5 -89 -11
-131 -18 -131 -24 0 -174 -79 -210 -111 -49 -43 -53 -55 -70 -212 -35 -314
-33 -399 9 -441 23 -23 23 -26 28 -292 2 -177 8 -283 16 -309 16 -50 93 -126
158 -155 117 -53 285 -99 458 -127 160 -26 658 -26 835 0 399 58 596 143 628
270 7 24 13 167 14 334 l4 291 24 20 c24 19 24 20 26 238 3 231 -2 270 -39
325 -42 62 -205 162 -327 200 l-55 17 -6 63 c-4 35 -7 99 -8 141 -1 77 -15
137 -29 124 -4 -4 -7 -96 -7 -205 0 -171 -2 -200 -18 -224 -47 -72 -61 -14
-53 225 4 131 3 199 -4 203 -17 11 -27 -35 -35 -164 l-7 -123 -47 6 c-25 4
-74 9 -108 13 l-63 6 0 58 c0 44 -4 59 -14 59 -23 0 -27 -41 -16 -172 12 -140
6 -202 -22 -230 -16 -16 -22 -17 -35 -6 -14 11 -15 38 -9 219 5 133 4 209 -3
213 -15 9 -20 -6 -27 -73 l-7 -61 -67 0 -67 0 -6 73 c-4 39 -9 111 -13 159 -7
91 -15 115 -33 104 -8 -5 -9 -64 -5 -204 7 -236 -5 -296 -48 -224 -24 40 -31
137 -20 282 8 101 7 128 -4 139 -11 13 -14 12 -20 -2z m-2 -403 c15 -55 54
-90 88 -79 24 8 50 59 50 100 0 23 4 25 44 25 24 0 57 -3 73 -6 l30 -6 -4
-121 c-5 -149 3 -172 61 -172 31 0 43 6 60 28 18 24 21 45 24 146 l4 117 66
-8 c148 -17 139 -12 146 -75 8 -69 30 -113 57 -113 30 0 76 51 84 93 4 21 11
37 16 37 25 0 142 -47 199 -80 189 -110 190 -113 187 -408 -1 -170 -5 -222
-14 -222 -9 0 -13 20 -13 67 0 73 -16 103 -56 103 -24 0 -89 -59 -99 -90 -10
-30 -51 -45 -89 -32 -18 7 -35 12 -39 12 -4 0 -20 -26 -36 -58 -51 -101 -70
-103 -164 -16 -63 59 -93 67 -146 39 -45 -23 -56 -62 -41 -150 11 -66 11 -77
-4 -100 -20 -31 -39 -32 -66 -3 -17 18 -20 35 -20 108 0 75 -3 90 -26 124 -26
38 -75 66 -114 66 -44 0 -78 -29 -110 -92 -53 -107 -83 -114 -135 -34 -19 29
-41 56 -50 60 -34 12 -83 5 -163 -24 -46 -16 -99 -30 -119 -30 -64 0 -148 30
-197 70 -54 45 -90 55 -144 41 -50 -14 -79 -40 -94 -82 -6 -19 -22 -50 -35
-69 l-23 -35 0 120 c0 93 -4 126 -16 143 -35 50 -71 12 -86 -90 -12 -84 -21
-100 -38 -67 -15 27 -9 213 14 414 l14 130 37 31 c33 30 172 104 193 104 5 0
12 -17 16 -38 7 -49 46 -87 79 -78 30 7 36 22 44 103 l6 62 86 19 c47 11 100
22 117 25 l31 6 6 -102 c8 -143 28 -187 82 -187 33 0 55 76 55 197 l0 112 53
4 c28 2 64 4 79 5 24 2 28 -3 40 -44z m1118 -685 c3 -35 10 -72 15 -81 7 -11
7 -61 2 -140 -4 -68 -6 -189 -3 -269 7 -190 -3 -251 -52 -302 -60 -63 -162
-100 -403 -147 -381 -73 -812 -71 -1144 5 -260 59 -349 102 -403 194 l-27 46
-3 274 c-3 226 -1 290 13 360 26 132 34 130 35 -10 0 -98 3 -129 15 -139 30
-25 81 18 107 92 23 66 85 106 134 88 14 -6 45 -25 67 -44 54 -43 107 -65 177
-73 47 -4 73 0 156 27 115 38 145 36 169 -11 26 -49 52 -69 91 -69 51 0 71 14
100 73 36 72 61 97 98 97 38 0 49 -7 81 -51 23 -31 25 -40 19 -99 -7 -74 3
-109 42 -145 34 -32 68 -32 101 1 25 25 25 27 18 126 -6 87 -5 102 11 119 31
35 74 25 128 -30 90 -92 140 -91 191 4 l29 54 46 -6 c40 -5 49 -2 75 24 17 16
43 46 58 67 16 20 34 35 40 33 7 -2 14 -32 17 -68z"></path>
<path class="node" id="node7" d="M550 1746 c0 -29 223 -121 355 -146 33 -7 78 -16 100 -20 22 -5 118
-14 213 -21 408 -27 896 39 1161 158 40 18 51 27 43 35 -12 12 -8 13 -152 -37
-110 -39 -250 -71 -412 -97 -123 -19 -184 -22 -438 -22 -264 0 -308 2 -415 22
-181 34 -262 60 -377 118 -54 27 -78 30 -78 10z"></path>
</g>
<g transform="translate(0.000000,300.000000) scale(0.100000,-0.100000)" fill="#B3DF36" stroke="none">


<path class="node" id="node10" d="M1283 2083 l-53 -4 0 -112 c0 -121 -22 -197 -55 -197 -54 0 -74 44
-82 187 l-6 102 -31 -6 c-17 -3 -70 -14 -117 -25 l-86 -19 -6 -62 c-8 -81 -14
-96 -44 -103 -33 -9 -72 29 -79 78 -4 21 -11 38 -16 38 -21 0 -160 -74 -193
-104 l-37 -31 -14 -130 c-23 -201 -29 -387 -14 -414 17 -33 26 -17 38 67 15
102 51 140 86 90 12 -17 16 -50 16 -143 l0 -120 23 35 c13 19 29 50 35 69 15
42 44 68 94 82 54 14 90 4 144 -41 49 -40 133 -70 197 -70 20 0 73 14 119 30
80 29 129 36 163 24 9 -4 31 -31 50 -60 52 -80 82 -73 135 34 32 63 66 92 110
92 39 0 88 -28 114 -66 23 -34 26 -49 26 -124 0 -73 3 -90 20 -108 27 -29 46
-28 66 3 15 23 15 34 4 100 -15 88 -4 127 41 150 53 28 83 20 146 -39 94 -87
113 -85 164 16 16 32 32 58 36 58 4 0 21 -5 39 -12 38 -13 79 2 89 32 10 31
75 90 99 90 40 0 56 -30 56 -103 0 -47 4 -67 13 -67 9 0 13 52 14 222 3 295 2
298 -187 408 -57 33 -174 80 -199 80 -5 0 -12 -16 -16 -37 -8 -42 -54 -93 -84
-93 -27 0 -49 44 -57 113 -7 63 2 58 -146 75 l-66 8 -4 -117 c-3 -101 -6 -122
-24 -146 -17 -22 -29 -28 -60 -28 -58 0 -66 23 -61 172 l4 121 -30 6 c-16 3
-49 6 -73 6 -40 0 -44 -2 -44 -25 0 -41 -26 -92 -50 -100 -34 -11 -73 24 -88
79 -12 41 -16 46 -40 44 -15 -1 -51 -3 -79 -5z m-655 -347 c115 -58 196 -84
377 -118 107 -20 151 -22 415 -22 254 0 315 3 438 22 162 26 302 58 412 97
144 50 140 49 152 37 8 -8 -3 -17 -43 -35 -265 -119 -753 -185 -1161 -158 -95
7 -191 16 -213 21 -22 4 -67 13 -100 20 -132 25 -355 117 -355 146 0 20 24 17
78 -10z"></path>
<path class="node" id="node11" d="M2463 1394 c-15 -21 -41 -51 -58 -67 -26 -26 -35 -29 -75 -24 l-46 6
-29 -54 c-51 -95 -101 -96 -191 -4 -54 55 -97 65 -128 30 -16 -17 -17 -32 -11
-119 7 -99 7 -101 -18 -126 -33 -33 -67 -33 -101 -1 -39 36 -49 71 -42 145 6
59 4 68 -19 99 -32 44 -43 51 -81 51 -37 0 -62 -25 -98 -97 -29 -59 -49 -73
-100 -73 -39 0 -65 20 -91 69 -24 47 -54 49 -169 11 -83 -27 -109 -31 -156
-27 -70 8 -123 30 -177 73 -22 19 -53 38 -67 44 -49 18 -111 -22 -134 -88 -26
-74 -77 -117 -107 -92 -12 10 -15 41 -15 139 -1 140 -9 142 -35 10 -14 -70
-16 -134 -13 -360 l3 -274 27 -46 c54 -92 143 -135 403 -194 332 -76 763 -78
1144 -5 241 47 343 84 403 147 49 51 59 112 52 302 -3 80 -1 201 3 269 5 79 5
129 -2 140 -5 9 -12 46 -15 81 -3 36 -10 66 -17 68 -6 2 -24 -13 -40 -33z"></path>
</g>
</svg>